solid Chest_Online_Ver3
facet normal 6.262891026128839e-07 1.39843930543016e-06 -0.999999999998826
  outer loop
    vertex 64.0114834645608 231.5090001193574 2.8075463480836668e-05
    vertex 52.26863591647688 228.1894365343998 2.829163992732475e-05
    vertex 50.325769178846016 231.5090001193574 2.8075463329968462e-05
  endloop
endfacet
facet normal 6.262891026128839e-07 1.39843930543016e-06 -0.999999999998826
  outer loop
    vertex 52.26863591647688 228.1894365343998 2.829163992732475e-05
    vertex 64.0114834645608 231.5090001193574 2.8075463480836668e-05
    vertex 52.26863591647688 224.56994244550356 2.8549594158921997e-05
  endloop
endfacet
facet normal 6.262891026128839e-07 1.39843930543016e-06 -0.999999999998826
  outer loop
    vertex 52.26863591647688 224.56994244550356 2.8549594158921997e-05
    vertex 64.0114834645608 231.5090001193574 2.8075463480836668e-05
    vertex 62.068625925107625 228.1894365343998 2.8164277377695777e-05
  endloop
endfacet
facet normal 6.262891026128839e-07 1.39843930543016e-06 -0.999999999998826
  outer loop
    vertex 52.26863591647688 224.56994244550356 2.8549594158921997e-05
    vertex 39.6686301495169 209.56994244550353 0.0
    vertex 39.6686301495169 224.56994244550356 0.0
  endloop
endfacet
facet normal 6.262891026128839e-07 1.39843930543016e-06 -0.999999999998826
  outer loop
    vertex 39.6686301495169 209.56994244550353 0.0
    vertex 52.26863591647688 224.56994244550356 2.8549594158921997e-05
    vertex 74.66862632160644 209.56994244550353 0.0
  endloop
endfacet
facet normal 6.262891026128839e-07 1.39843930543016e-06 -0.999999999998826
  outer loop
    vertex 74.66862632160644 209.56994244550353 0.0
    vertex 52.26863591647688 224.56994244550356 2.8549594158921997e-05
    vertex 62.068625925107625 224.56987294944219 2.8311181601337054e-05
  endloop
endfacet
facet normal 6.262891026128839e-07 1.39843930543016e-06 -0.999999999998826
  outer loop
    vertex 62.068625925107625 224.56987294944219 2.8311181601337054e-05
    vertex 52.26863591647688 224.56994244550356 2.8549594158921997e-05
    vertex 62.068625925107625 228.1894365343998 2.8164277377695777e-05
  endloop
endfacet
facet normal 6.262891026128839e-07 1.39843930543016e-06 -0.999999999998826
  outer loop
    vertex 74.66862632160644 209.56994244550353 0.0
    vertex 62.068625925107625 224.56987294944219 2.8311181601337054e-05
    vertex 74.66862632160644 224.56987294944219 5.07311100575003e-05
  endloop
endfacet
facet normal -6.262891026128839e-07 -1.39843930543016e-06 0.999999999998826
  outer loop
    vertex 74.66862005871556 209.5699284611108 9.999999999988235
    vertex 39.668623886625895 224.56992846111078 9.999999999988235
    vertex 39.668623886625895 209.5699284611108 9.999999999988235
  endloop
endfacet
facet normal -6.262891026128839e-07 -1.39843930543016e-06 0.999999999998826
  outer loop
    vertex 39.668623886625895 224.56992846111078 9.999999999988235
    vertex 74.66862005871556 209.5699284611108 9.999999999988235
    vertex 52.26862965358594 224.56992846111078 10.000028549582394
  endloop
endfacet
facet normal -6.262891026128839e-07 -1.39843930543016e-06 0.999999999998826
  outer loop
    vertex 52.26862965358594 224.56992846111078 10.000028549582394
    vertex 74.66862005871556 209.5699284611108 9.999999999988235
    vertex 52.26862965358594 228.189422550007 10.000028291628162
  endloop
endfacet
facet normal -6.262891026128839e-07 -1.39843930543016e-06 0.999999999998826
  outer loop
    vertex 52.26862965358594 228.189422550007 10.000028291628162
    vertex 74.66862005871556 209.5699284611108 9.999999999988235
    vertex 62.06861966221666 224.5698589650494 10.000028311169837
  endloop
endfacet
facet normal -6.262891026128839e-07 -1.39843930543016e-06 0.999999999998826
  outer loop
    vertex 62.06861966221666 224.5698589650494 10.000028311169837
    vertex 74.66862005871556 209.5699284611108 9.999999999988235
    vertex 74.66862005871556 224.5698589650494 10.000050731098291
  endloop
endfacet
facet normal -6.262891026128839e-07 -1.39843930543016e-06 0.999999999998826
  outer loop
    vertex 52.26862965358594 228.189422550007 10.000028291628162
    vertex 64.01147720166985 231.50898613496466 10.000028075451715
    vertex 50.32576291595494 231.50898613496466 10.000028075451565
  endloop
endfacet
facet normal -6.262891026128839e-07 -1.39843930543016e-06 0.999999999998826
  outer loop
    vertex 64.01147720166985 231.50898613496466 10.000028075451715
    vertex 52.26862965358594 228.189422550007 10.000028291628162
    vertex 62.06861966221666 228.189422550007 10.000028164265611
  endloop
endfacet
facet normal -6.262891026128839e-07 -1.39843930543016e-06 0.999999999998826
  outer loop
    vertex 62.06861966221666 228.189422550007 10.000028164265611
    vertex 52.26862965358594 228.189422550007 10.000028291628162
    vertex 62.06861966221666 224.5698589650494 10.000028311169837
  endloop
endfacet
facet normal -0.9999999999998039 -0.0 -6.262891026134963e-07
  outer loop
    vertex 39.668623886625895 224.56992846111078 9.999999999988235
    vertex 39.6686301495169 209.56994244550353 0.0
    vertex 39.668623886625895 209.5699284611108 9.999999999988235
  endloop
endfacet
facet normal -0.9999999999998039 -0.0 -6.262891026134963e-07
  outer loop
    vertex 39.6686301495169 209.56994244550353 0.0
    vertex 39.668623886625895 224.56992846111078 9.999999999988235
    vertex 39.6686301495169 224.56994244550356 0.0
  endloop
endfacet
facet normal 0.0 -0.9999999999990223 -1.3984393054304342e-06
  outer loop
    vertex 74.66862005871556 209.5699284611108 9.999999999988235
    vertex 39.6686301495169 209.56994244550353 0.0
    vertex 74.66862632160644 209.56994244550353 0.0
  endloop
endfacet
facet normal 0.0 -0.9999999999990223 -1.3984393054304342e-06
  outer loop
    vertex 39.6686301495169 209.56994244550353 0.0
    vertex 74.66862005871556 209.5699284611108 9.999999999988235
    vertex 39.668623886625895 209.5699284611108 9.999999999988235
  endloop
endfacet
facet normal 0.9999999999998039 -2.1181659064357286e-12 6.262891026105342e-07
  outer loop
    vertex 74.66862632160644 209.56994244550353 0.0
    vertex 74.66862005871556 224.5698589650494 10.000050731098291
    vertex 74.66862005871556 209.5699284611108 9.999999999988235
  endloop
endfacet
facet normal 0.9999999999998039 -2.1181659064357286e-12 6.262891026105342e-07
  outer loop
    vertex 74.66862005871556 224.5698589650494 10.000050731098291
    vertex 74.66862632160644 209.56994244550353 0.0
    vertex 74.66862632160644 224.56987294944219 5.07311100575003e-05
  endloop
endfacet
facet normal -2.488326046935214e-12 0.9999999999990222 1.3984393054288759e-06
  outer loop
    vertex 62.06861966221666 224.5698589650494 10.000028311169837
    vertex 74.66862632160644 224.56987294944219 5.07311100575003e-05
    vertex 62.068625925107625 224.56987294944219 2.8311181601337054e-05
  endloop
endfacet
facet normal -2.488326046935214e-12 0.9999999999990222 1.3984393054288759e-06
  outer loop
    vertex 74.66862632160644 224.56987294944219 5.07311100575003e-05
    vertex 62.06861966221666 224.5698589650494 10.000028311169837
    vertex 74.66862005871556 224.5698589650494 10.000050731098291
  endloop
endfacet
facet normal 0.999999999999804 2.5418676101392544e-14 6.262891026135319e-07
  outer loop
    vertex 62.068625925107625 224.56987294944219 2.8311181601337054e-05
    vertex 62.06861966221666 228.189422550007 10.000028164265611
    vertex 62.06861966221666 224.5698589650494 10.000028311169837
  endloop
endfacet
facet normal 0.999999999999804 2.5418676101392544e-14 6.262891026135319e-07
  outer loop
    vertex 62.06861966221666 228.189422550007 10.000028164265611
    vertex 62.068625925107625 224.56987294944219 2.8311181601337054e-05
    vertex 62.068625925107625 228.1894365343998 2.8164277377695777e-05
  endloop
endfacet
facet normal 0.8630486570927052 -0.5051207929698113 -1.6586280191738433e-07
  outer loop
    vertex 62.068625925107625 228.1894365343998 2.8164277377695777e-05
    vertex 64.01147720166985 231.50898613496466 10.000028075451715
    vertex 62.06861966221666 228.189422550007 10.000028164265611
  endloop
endfacet
facet normal 0.8630486570927052 -0.5051207929698113 -1.6586280191738433e-07
  outer loop
    vertex 64.01147720166985 231.50898613496466 10.000028075451715
    vertex 62.068625925107625 228.1894365343998 2.8164277377695777e-05
    vertex 64.0114834645608 231.5090001193574 2.8075463480836668e-05
  endloop
endfacet
facet normal -1.541607737434364e-20 0.9999999999990223 1.3984393054304344e-06
  outer loop
    vertex 50.32576291595494 231.50898613496466 10.000028075451565
    vertex 64.0114834645608 231.5090001193574 2.8075463480836668e-05
    vertex 50.325769178846016 231.5090001193574 2.8075463329968462e-05
  endloop
endfacet
facet normal -1.541607737434364e-20 0.9999999999990223 1.3984393054304344e-06
  outer loop
    vertex 64.0114834645608 231.5090001193574 2.8075463480836668e-05
    vertex 50.32576291595494 231.50898613496466 10.000028075451565
    vertex 64.01147720166985 231.50898613496466 10.000028075451715
  endloop
endfacet
facet normal -0.863047614566114 -0.50512257422351 -1.2469005778944854e-06
  outer loop
    vertex 50.32576291595494 231.50898613496466 10.000028075451565
    vertex 52.26863591647688 228.1894365343998 2.829163992732475e-05
    vertex 52.26862965358594 228.189422550007 10.000028291628162
  endloop
endfacet
facet normal -0.863047614566114 -0.50512257422351 -1.2469005778944854e-06
  outer loop
    vertex 52.26863591647688 228.1894365343998 2.829163992732475e-05
    vertex 50.32576291595494 231.50898613496466 10.000028075451565
    vertex 50.325769178846016 231.5090001193574 2.8075463329968462e-05
  endloop
endfacet
facet normal -0.9999999999998039 -4.463439371762478e-14 -6.262891026135588e-07
  outer loop
    vertex 52.26862965358594 228.189422550007 10.000028291628162
    vertex 52.26863591647688 224.56994244550356 2.8549594158921997e-05
    vertex 52.26862965358594 224.56992846111078 10.000028549582394
  endloop
endfacet
facet normal -0.9999999999998039 -4.463439371762478e-14 -6.262891026135588e-07
  outer loop
    vertex 52.26863591647688 224.56994244550356 2.8549594158921997e-05
    vertex 52.26862965358594 228.189422550007 10.000028291628162
    vertex 52.26863591647688 228.1894365343998 2.829163992732475e-05
  endloop
endfacet
facet normal -3.168639393051622e-12 0.9999999999990222 1.3984393054284498e-06
  outer loop
    vertex 39.668623886625895 224.56992846111078 9.999999999988235
    vertex 52.26863591647688 224.56994244550356 2.8549594158921997e-05
    vertex 39.6686301495169 224.56994244550356 0.0
  endloop
endfacet
facet normal -3.168639393051622e-12 0.9999999999990222 1.3984393054284498e-06
  outer loop
    vertex 52.26863591647688 224.56994244550356 2.8549594158921997e-05
    vertex 39.668623886625895 224.56992846111078 9.999999999988235
    vertex 52.26862965358594 224.56992846111078 10.000028549582394
  endloop
endfacet
facet normal 1.3859422037687934e-06 -5.162901586031053e-07 -0.9999999999989064
  outer loop
    vertex 39.668640544079544 255.9090017822581 0.0
    vertex 50.16863671626671 247.90901060765174 2.9054086149959965e-05
    vertex 39.66864054408023 240.90900178225795 9.786228199915036e-07
  endloop
endfacet
facet normal 1.3859422037687934e-06 -5.162901586031053e-07 -0.9999999999989064
  outer loop
    vertex 50.16863671626671 247.90901060765174 2.9054086149959965e-05
    vertex 39.668640544079544 255.9090017822581 0.0
    vertex 74.66863671616908 255.9090017822581 5.217439402493973e-05
  endloop
endfacet
facet normal 1.3859422037687934e-06 -5.162901586031053e-07 -0.9999999999989064
  outer loop
    vertex 50.16863671626671 247.90901060765174 2.9054086149959965e-05
    vertex 74.66863671616908 255.9090017822581 5.217439402493973e-05
    vertex 64.16863671626679 247.90901060765174 2.9054086298008205e-05
  endloop
endfacet
facet normal 1.3859422037687934e-06 -5.162901586031053e-07 -0.9999999999989064
  outer loop
    vertex 62.168636716218145 244.41107818855366 4.0381909573650175e-05
    vertex 74.66863671616979 240.9131457694557 5.170973287749181e-05
    vertex 62.16863671616978 240.9131457694557 5.170973287749181e-05
  endloop
endfacet
facet normal 1.3859422037687934e-06 -5.162901586031053e-07 -0.9999999999989064
  outer loop
    vertex 74.66863671616979 240.9131457694557 5.170973287749181e-05
    vertex 62.168636716218145 244.41107818855366 4.0381909573650175e-05
    vertex 64.16863671626679 247.90901060765174 2.9054086298008205e-05
  endloop
endfacet
facet normal 1.3859422037687934e-06 -5.162901586031053e-07 -0.9999999999989064
  outer loop
    vertex 74.66863671616979 240.9131457694557 5.170973287749181e-05
    vertex 64.16863671626679 247.90901060765174 2.9054086298008205e-05
    vertex 74.66863671616908 255.9090017822581 5.217439402493973e-05
  endloop
endfacet
facet normal 1.3859422037687934e-06 -5.162901586031053e-07 -0.9999999999989064
  outer loop
    vertex 50.16863671626671 247.90901060765174 2.9054086149959965e-05
    vertex 52.168636716266626 240.90901060765165 2.968949420512068e-05
    vertex 39.66864054408023 240.90900178225795 9.786228199915036e-07
  endloop
endfacet
facet normal 1.3859422037687934e-06 -5.162901586031053e-07 -0.9999999999989064
  outer loop
    vertex 52.168636716266626 240.90901060765165 2.968949420512068e-05
    vertex 50.16863671626671 247.90901060765174 2.9054086149959965e-05
    vertex 52.168636716266626 244.4090106076517 2.9371790186705213e-05
  endloop
endfacet
facet normal -1.3859422037687934e-06 5.162901586031053e-07 0.9999999999989064
  outer loop
    vertex 52.168622856869945 240.90901577054385 10.000011393905364
    vertex 50.16862285686998 247.90901577054387 10.000010758497309
    vertex 39.66862668468351 240.9090069451501 9.99998268303398
  endloop
endfacet
facet normal -1.3859422037687934e-06 5.162901586031053e-07 0.9999999999989064
  outer loop
    vertex 50.16862285686998 247.90901577054387 10.000010758497309
    vertex 52.168622856869945 240.90901577054385 10.000011393905364
    vertex 52.168622856869945 244.4090157705439 10.000011076201348
  endloop
endfacet
facet normal -1.3859422037687934e-06 5.162901586031053e-07 0.9999999999989064
  outer loop
    vertex 74.66862285677311 240.9131509323479 10.000033414144037
    vertex 62.16862285682148 244.41108335144582 10.000022086320733
    vertex 62.16862285677311 240.9131509323479 10.000033414144037
  endloop
endfacet
facet normal -1.3859422037687934e-06 5.162901586031053e-07 0.9999999999989064
  outer loop
    vertex 62.16862285682148 244.41108335144582 10.000022086320733
    vertex 74.66862285677311 240.9131509323479 10.000033414144037
    vertex 64.16862285687012 247.90901577054387 10.000010758497458
  endloop
endfacet
facet normal -1.3859422037687934e-06 5.162901586031053e-07 0.9999999999989064
  outer loop
    vertex 64.16862285687012 247.90901577054387 10.000010758497458
    vertex 74.66862285677311 240.9131509323479 10.000033414144037
    vertex 74.66862285677242 255.90900694515014 10.000033878805176
  endloop
endfacet
facet normal -1.3859422037687934e-06 5.162901586031053e-07 0.9999999999989064
  outer loop
    vertex 39.66862668468282 255.90900694515014 9.999981704411152
    vertex 50.16862285686998 247.90901577054387 10.000010758497309
    vertex 74.66862285677242 255.90900694515014 10.000033878805176
  endloop
endfacet
facet normal -1.3859422037687934e-06 5.162901586031053e-07 0.9999999999989064
  outer loop
    vertex 50.16862285686998 247.90901577054387 10.000010758497309
    vertex 39.66862668468282 255.90900694515014 9.999981704411152
    vertex 39.66862668468351 240.9090069451501 9.99998268303398
  endloop
endfacet
facet normal -1.3859422037687934e-06 5.162901586031053e-07 0.9999999999989064
  outer loop
    vertex 74.66862285677242 255.90900694515014 10.000033878805176
    vertex 50.16862285686998 247.90901577054387 10.000010758497309
    vertex 64.16862285687012 247.90901577054387 10.000010758497458
  endloop
endfacet
facet normal -0.9999999999990395 -1.2580554481115375e-13 -1.385942203768913e-06
  outer loop
    vertex 39.66862668468351 240.9090069451501 9.99998268303398
    vertex 39.668640544079544 255.9090017822581 0.0
    vertex 39.66864054408023 240.90900178225795 9.786228199915036e-07
  endloop
endfacet
facet normal -0.9999999999990395 -1.2580554481115375e-13 -1.385942203768913e-06
  outer loop
    vertex 39.668640544079544 255.9090017822581 0.0
    vertex 39.66862668468351 240.9090069451501 9.99998268303398
    vertex 39.66862668468282 255.90900694515014 9.999981704411152
  endloop
endfacet
facet normal 7.060305282917564e-07 -0.9999999999996176 5.162911371209788e-07
  outer loop
    vertex 52.168636716266626 240.90901060765165 2.968949420512068e-05
    vertex 39.66862668468351 240.9090069451501 9.99998268303398
    vertex 39.66864054408023 240.90900178225795 9.786228199915036e-07
  endloop
endfacet
facet normal 7.060305282917564e-07 -0.9999999999996176 5.162911371209788e-07
  outer loop
    vertex 39.66862668468351 240.9090069451501 9.99998268303398
    vertex 52.168636716266626 240.90901060765165 2.968949420512068e-05
    vertex 52.168622856869945 240.90901577054385 10.000011393905364
  endloop
endfacet
facet normal 0.9999999999990395 1.2580554497970258e-13 1.3859422037689128e-06
  outer loop
    vertex 52.168636716266626 244.4090106076517 2.9371790186705213e-05
    vertex 52.168622856869945 240.90901577054385 10.000011393905364
    vertex 52.168636716266626 240.90901060765165 2.968949420512068e-05
  endloop
endfacet
facet normal 0.9999999999990395 1.2580554497970258e-13 1.3859422037689128e-06
  outer loop
    vertex 52.168622856869945 240.90901577054385 10.000011393905364
    vertex 52.168636716266626 244.4090106076517 2.9371790186705213e-05
    vertex 52.168622856869945 244.4090157705439 10.000011076201348
  endloop
endfacet
facet normal 0.8682431421240439 0.4961389383566568 9.4718316263024e-07
  outer loop
    vertex 50.16863671626671 247.90901060765174 2.9054086149959965e-05
    vertex 52.168622856869945 244.4090157705439 10.000011076201348
    vertex 52.168636716266626 244.4090106076517 2.9371790186705213e-05
  endloop
endfacet
facet normal 0.8682431421240439 0.4961389383566568 9.4718316263024e-07
  outer loop
    vertex 52.168622856869945 244.4090157705439 10.000011076201348
    vertex 50.16863671626671 247.90901060765174 2.9054086149959965e-05
    vertex 50.16862285686998 247.90901577054387 10.000010758497309
  endloop
endfacet
facet normal -5.459703534493074e-21 -0.9999999999998668 5.162901586036011e-07
  outer loop
    vertex 64.16863671626679 247.90901060765174 2.9054086298008205e-05
    vertex 50.16862285686998 247.90901577054387 10.000010758497309
    vertex 50.16863671626671 247.90901060765174 2.9054086149959965e-05
  endloop
endfacet
facet normal -5.459703534493074e-21 -0.9999999999998668 5.162901586036011e-07
  outer loop
    vertex 50.16862285686998 247.90901577054387 10.000010758497309
    vertex 64.16863671626679 247.90901060765174 2.9054086298008205e-05
    vertex 64.16862285687012 247.90901577054387 10.000010758497458
  endloop
endfacet
facet normal -0.8681168045210887 0.49635996384273773 -1.4594254816448751e-06
  outer loop
    vertex 62.16862285682148 244.41108335144582 10.000022086320733
    vertex 64.16863671626679 247.90901060765174 2.9054086298008205e-05
    vertex 62.168636716218145 244.41107818855366 4.0381909573650175e-05
  endloop
endfacet
facet normal -0.8681168045210887 0.49635996384273773 -1.4594254816448751e-06
  outer loop
    vertex 64.16863671626679 247.90901060765174 2.9054086298008205e-05
    vertex 62.16862285682148 244.41108335144582 10.000022086320733
    vertex 64.16862285687012 247.90901577054387 10.000010758497458
  endloop
endfacet
facet normal -0.9999999999990397 9.339333297740764e-12 -1.3859422037737998e-06
  outer loop
    vertex 62.16862285677311 240.9131509323479 10.000033414144037
    vertex 62.168636716218145 244.41107818855366 4.0381909573650175e-05
    vertex 62.16863671616978 240.9131457694557 5.170973287749181e-05
  endloop
endfacet
facet normal -0.9999999999990397 9.339333297740764e-12 -1.3859422037737998e-06
  outer loop
    vertex 62.168636716218145 244.41107818855366 4.0381909573650175e-05
    vertex 62.16862285677311 240.9131509323479 10.000033414144037
    vertex 62.16862285682148 244.41108335144582 10.000022086320733
  endloop
endfacet
facet normal 0.0 -0.9999999999998668 5.162901586036011e-07
  outer loop
    vertex 74.66862285677311 240.9131509323479 10.000033414144037
    vertex 62.16863671616978 240.9131457694557 5.170973287749181e-05
    vertex 74.66863671616979 240.9131457694557 5.170973287749181e-05
  endloop
endfacet
facet normal 0.0 -0.9999999999998668 5.162901586036011e-07
  outer loop
    vertex 62.16863671616978 240.9131457694557 5.170973287749181e-05
    vertex 74.66862285677311 240.9131509323479 10.000033414144037
    vertex 62.16862285677311 240.9131509323479 10.000033414144037
  endloop
endfacet
facet normal 0.9999999999990395 0.0 1.3859422037689776e-06
  outer loop
    vertex 74.66863671616908 255.9090017822581 5.217439402493973e-05
    vertex 74.66862285677311 240.9131509323479 10.000033414144037
    vertex 74.66863671616979 240.9131457694557 5.170973287749181e-05
  endloop
endfacet
facet normal 0.9999999999990395 0.0 1.3859422037689776e-06
  outer loop
    vertex 74.66862285677311 240.9131509323479 10.000033414144037
    vertex 74.66863671616908 255.9090017822581 5.217439402493973e-05
    vertex 74.66862285677242 255.90900694515014 10.000033878805176
  endloop
endfacet
facet normal 7.696322603488753e-13 0.9999999999998668 -5.162901586025344e-07
  outer loop
    vertex 39.66862668468282 255.90900694515014 9.999981704411152
    vertex 74.66863671616908 255.9090017822581 5.217439402493973e-05
    vertex 39.668640544079544 255.9090017822581 0.0
  endloop
endfacet
facet normal 7.696322603488753e-13 0.9999999999998668 -5.162901586025344e-07
  outer loop
    vertex 74.66863671616908 255.9090017822581 5.217439402493973e-05
    vertex 39.66862668468282 255.90900694515014 9.999981704411152
    vertex 74.66862285677242 255.90900694515014 10.000033878805176
  endloop
endfacet
endsolid Chest_Online_Ver3
