solid Chest Online Ver3
facet normal 6.262891026128839e-07 1.39843930543016e-06 -0.999999999998826
  outer loop
    vertex 10.17488324775106 223.0051649615817 10.020463674098588
    vertex -1.5679643003328614 219.68560137662405 10.020463890275035
    vertex -3.5108310379637206 223.0051649615817 10.020463674098437
  endloop
endfacet
facet normal 6.262891026128839e-07 1.39843930543016e-06 -0.999999999998826
  outer loop
    vertex -1.5679643003328614 219.68560137662405 10.020463890275035
    vertex 10.17488324775106 223.0051649615817 10.020463674098588
    vertex -1.5679643003328614 216.06610728772782 10.020464148229266
  endloop
endfacet
facet normal 6.262891026128839e-07 1.39843930543016e-06 -0.999999999998826
  outer loop
    vertex -1.5679643003328614 216.06610728772782 10.020464148229266
    vertex 10.17488324775106 223.0051649615817 10.020463674098588
    vertex 8.232025708297883 219.68560137662405 10.020463762912485
  endloop
endfacet
facet normal 6.262891026128839e-07 1.39843930543016e-06 -0.999999999998826
  outer loop
    vertex -1.5679643003328614 216.06610728772782 10.020464148229266
    vertex -14.167970067292842 201.06610728772782 10.020435598635107
    vertex -14.167970067292842 216.06610728772782 10.020435598635107
  endloop
endfacet
facet normal 6.262891026128839e-07 1.39843930543016e-06 -0.999999999998826
  outer loop
    vertex -14.167970067292842 201.06610728772782 10.020435598635107
    vertex -1.5679643003328614 216.06610728772782 10.020464148229266
    vertex 20.832026104796697 201.06610728772782 10.020435598635107
  endloop
endfacet
facet normal 6.262891026128839e-07 1.39843930543016e-06 -0.999999999998826
  outer loop
    vertex 20.832026104796697 201.06610728772782 10.020435598635107
    vertex -1.5679643003328614 216.06610728772782 10.020464148229266
    vertex 8.232025708297883 216.06603779166647 10.020463909816709
  endloop
endfacet
facet normal 6.262891026128839e-07 1.39843930543016e-06 -0.999999999998826
  outer loop
    vertex 8.232025708297883 216.06603779166647 10.020463909816709
    vertex -1.5679643003328614 216.06610728772782 10.020464148229266
    vertex 8.232025708297883 219.68560137662405 10.020463762912485
  endloop
endfacet
facet normal 6.262891026128839e-07 1.39843930543016e-06 -0.999999999998826
  outer loop
    vertex 20.832026104796697 201.06610728772782 10.020435598635107
    vertex 8.232025708297883 216.06603779166647 10.020463909816709
    vertex 20.832026104796697 216.06603779166647 10.020486329745165
  endloop
endfacet
facet normal -6.262891026128839e-07 -1.39843930543016e-06 0.999999999998826
  outer loop
    vertex 20.832021407628485 201.06609679943358 17.520435598626275
    vertex -14.167974764461055 216.06609679943358 17.520435598626275
    vertex -14.167974764461055 201.06609679943358 17.520435598626275
  endloop
endfacet
facet normal -6.262891026128839e-07 -1.39843930543016e-06 0.999999999998826
  outer loop
    vertex -14.167974764461055 216.06609679943358 17.520435598626275
    vertex 20.832021407628485 201.06609679943358 17.520435598626275
    vertex -1.5679689975011277 216.06609679943358 17.520464148220434
  endloop
endfacet
facet normal -6.262891026128839e-07 -1.39843930543016e-06 0.999999999998826
  outer loop
    vertex -1.5679689975011277 216.06609679943358 17.520464148220434
    vertex 20.832021407628485 201.06609679943358 17.520435598626275
    vertex -1.5679689975011277 219.68559088832978 17.520463890266203
  endloop
endfacet
facet normal -6.262891026128839e-07 -1.39843930543016e-06 0.999999999998826
  outer loop
    vertex -1.5679689975011277 219.68559088832978 17.520463890266203
    vertex 20.832021407628485 201.06609679943358 17.520435598626275
    vertex 8.232021011129593 216.0660273033722 17.520463909807876
  endloop
endfacet
facet normal -6.262891026128839e-07 -1.39843930543016e-06 0.999999999998826
  outer loop
    vertex 8.232021011129593 216.0660273033722 17.520463909807876
    vertex 20.832021407628485 201.06609679943358 17.520435598626275
    vertex 20.832021407628485 216.0660273033722 17.52048632973633
  endloop
endfacet
facet normal -6.262891026128839e-07 -1.39843930543016e-06 0.999999999998826
  outer loop
    vertex -1.5679689975011277 219.68559088832978 17.520463890266203
    vertex 10.17487855058277 223.00515447328743 17.520463674089754
    vertex -3.5108357351320056 223.00515447328743 17.520463674089605
  endloop
endfacet
facet normal -6.262891026128839e-07 -1.39843930543016e-06 0.999999999998826
  outer loop
    vertex 10.17487855058277 223.00515447328743 17.520463674089754
    vertex -1.5679689975011277 219.68559088832978 17.520463890266203
    vertex 8.232021011129593 219.68559088832978 17.52046376290365
  endloop
endfacet
facet normal -6.262891026128839e-07 -1.39843930543016e-06 0.999999999998826
  outer loop
    vertex 8.232021011129593 219.68559088832978 17.52046376290365
    vertex -1.5679689975011277 219.68559088832978 17.520463890266203
    vertex 8.232021011129593 216.0660273033722 17.520463909807876
  endloop
endfacet
facet normal -0.9999999999998039 -0.0 -6.262891026134963e-07
  outer loop
    vertex -14.167974764461055 216.06609679943358 17.520435598626275
    vertex -14.167970067292842 201.06610728772782 10.020435598635107
    vertex -14.167974764461055 201.06609679943358 17.520435598626275
  endloop
endfacet
facet normal -0.9999999999998039 -0.0 -6.262891026134963e-07
  outer loop
    vertex -14.167970067292842 201.06610728772782 10.020435598635107
    vertex -14.167974764461055 216.06609679943358 17.520435598626275
    vertex -14.167970067292842 216.06610728772782 10.020435598635107
  endloop
endfacet
facet normal 0.0 -0.9999999999990223 -1.3984393054304342e-06
  outer loop
    vertex 20.832021407628485 201.06609679943358 17.520435598626275
    vertex -14.167970067292842 201.06610728772782 10.020435598635107
    vertex 20.832026104796697 201.06610728772782 10.020435598635107
  endloop
endfacet
facet normal 0.0 -0.9999999999990223 -1.3984393054304342e-06
  outer loop
    vertex -14.167970067292842 201.06610728772782 10.020435598635107
    vertex 20.832021407628485 201.06609679943358 17.520435598626275
    vertex -14.167974764461055 201.06609679943358 17.520435598626275
  endloop
endfacet
facet normal 0.9999999999998039 -2.1181659064357286e-12 6.262891026105342e-07
  outer loop
    vertex 20.832026104796697 201.06610728772782 10.020435598635107
    vertex 20.832021407628485 216.0660273033722 17.52048632973633
    vertex 20.832021407628485 201.06609679943358 17.520435598626275
  endloop
endfacet
facet normal 0.9999999999998039 -2.1181659064357286e-12 6.262891026105342e-07
  outer loop
    vertex 20.832021407628485 216.0660273033722 17.52048632973633
    vertex 20.832026104796697 201.06610728772782 10.020435598635107
    vertex 20.832026104796697 216.06603779166647 10.020486329745165
  endloop
endfacet
facet normal -2.488326046935214e-12 0.9999999999990222 1.3984393054288759e-06
  outer loop
    vertex 8.232021011129593 216.0660273033722 17.520463909807876
    vertex 20.832026104796697 216.06603779166647 10.020486329745165
    vertex 8.232025708297883 216.06603779166647 10.020463909816709
  endloop
endfacet
facet normal -2.488326046935214e-12 0.9999999999990222 1.3984393054288759e-06
  outer loop
    vertex 20.832026104796697 216.06603779166647 10.020486329745165
    vertex 8.232021011129593 216.0660273033722 17.520463909807876
    vertex 20.832021407628485 216.0660273033722 17.52048632973633
  endloop
endfacet
facet normal 0.999999999999804 2.5418676101392544e-14 6.262891026135319e-07
  outer loop
    vertex 8.232025708297883 216.06603779166647 10.020463909816709
    vertex 8.232021011129593 219.68559088832978 17.52046376290365
    vertex 8.232021011129593 216.0660273033722 17.520463909807876
  endloop
endfacet
facet normal 0.999999999999804 2.5418676101392544e-14 6.262891026135319e-07
  outer loop
    vertex 8.232021011129593 219.68559088832978 17.52046376290365
    vertex 8.232025708297883 216.06603779166647 10.020463909816709
    vertex 8.232025708297883 219.68560137662405 10.020463762912485
  endloop
endfacet
facet normal 0.8630486570927052 -0.5051207929698113 -1.6586280191738433e-07
  outer loop
    vertex 8.232025708297883 219.68560137662405 10.020463762912485
    vertex 10.17487855058277 223.00515447328743 17.520463674089754
    vertex 8.232021011129593 219.68559088832978 17.52046376290365
  endloop
endfacet
facet normal 0.8630486570927052 -0.5051207929698113 -1.6586280191738433e-07
  outer loop
    vertex 10.17487855058277 223.00515447328743 17.520463674089754
    vertex 8.232025708297883 219.68560137662405 10.020463762912485
    vertex 10.17488324775106 223.0051649615817 10.020463674098588
  endloop
endfacet
facet normal -1.541607737434364e-20 0.9999999999990223 1.3984393054304344e-06
  outer loop
    vertex -3.5108357351320056 223.00515447328743 17.520463674089605
    vertex 10.17488324775106 223.0051649615817 10.020463674098588
    vertex -3.5108310379637206 223.0051649615817 10.020463674098437
  endloop
endfacet
facet normal -1.541607737434364e-20 0.9999999999990223 1.3984393054304344e-06
  outer loop
    vertex 10.17488324775106 223.0051649615817 10.020463674098588
    vertex -3.5108357351320056 223.00515447328743 17.520463674089605
    vertex 10.17487855058277 223.00515447328743 17.520463674089754
  endloop
endfacet
facet normal -0.863047614566114 -0.50512257422351 -1.2469005778944854e-06
  outer loop
    vertex -3.5108357351320056 223.00515447328743 17.520463674089605
    vertex -1.5679643003328614 219.68560137662405 10.020463890275035
    vertex -1.5679689975011277 219.68559088832978 17.520463890266203
  endloop
endfacet
facet normal -0.863047614566114 -0.50512257422351 -1.2469005778944854e-06
  outer loop
    vertex -1.5679643003328614 219.68560137662405 10.020463890275035
    vertex -3.5108357351320056 223.00515447328743 17.520463674089605
    vertex -3.5108310379637206 223.0051649615817 10.020463674098437
  endloop
endfacet
facet normal -0.9999999999998039 -4.463439371762478e-14 -6.262891026135588e-07
  outer loop
    vertex -1.5679689975011277 219.68559088832978 17.520463890266203
    vertex -1.5679643003328614 216.06610728772782 10.020464148229266
    vertex -1.5679689975011277 216.06609679943358 17.520464148220434
  endloop
endfacet
facet normal -0.9999999999998039 -4.463439371762478e-14 -6.262891026135588e-07
  outer loop
    vertex -1.5679643003328614 216.06610728772782 10.020464148229266
    vertex -1.5679689975011277 219.68559088832978 17.520463890266203
    vertex -1.5679643003328614 219.68560137662405 10.020463890275035
  endloop
endfacet
facet normal -3.168639393051622e-12 0.9999999999990222 1.3984393054284498e-06
  outer loop
    vertex -14.167974764461055 216.06609679943358 17.520435598626275
    vertex -1.5679643003328614 216.06610728772782 10.020464148229266
    vertex -14.167970067292842 216.06610728772782 10.020435598635107
  endloop
endfacet
facet normal -3.168639393051622e-12 0.9999999999990222 1.3984393054284498e-06
  outer loop
    vertex -1.5679643003328614 216.06610728772782 10.020464148229266
    vertex -14.167974764461055 216.06609679943358 17.520435598626275
    vertex -1.5679689975011277 216.06609679943358 17.520464148220434
  endloop
endfacet
facet normal 1.3859422037687934e-06 -5.162901586031053e-07 -0.9999999999989064
  outer loop
    vertex -14.16797006729353 247.4051561361881 10.020434620012287
    vertex -3.667973895106363 239.40516496158176 10.020463674098437
    vertex -14.167970067292842 232.40515613618794 10.020435598635107
  endloop
endfacet
facet normal 1.3859422037687934e-06 -5.162901586031053e-07 -0.9999999999989064
  outer loop
    vertex -3.667973895106363 239.40516496158176 10.020463674098437
    vertex -14.16797006729353 247.4051561361881 10.020434620012287
    vertex 20.83202610479601 247.4051561361881 10.020486794406313
  endloop
endfacet
facet normal 1.3859422037687934e-06 -5.162901586031053e-07 -0.9999999999989064
  outer loop
    vertex -3.667973895106363 239.40516496158176 10.020463674098437
    vertex 20.83202610479601 247.4051561361881 10.020486794406313
    vertex 10.332026104893702 239.40516496158176 10.020463674098586
  endloop
endfacet
facet normal 1.3859422037687934e-06 -5.162901586031053e-07 -0.9999999999989064
  outer loop
    vertex 8.332026104845067 235.90723254248365 10.020475001921861
    vertex 20.832026104796697 232.40930012338572 10.020486329745165
    vertex 8.332026104796698 232.40930012338572 10.020486329745165
  endloop
endfacet
facet normal 1.3859422037687934e-06 -5.162901586031053e-07 -0.9999999999989064
  outer loop
    vertex 20.832026104796697 232.40930012338572 10.020486329745165
    vertex 8.332026104845067 235.90723254248365 10.020475001921861
    vertex 10.332026104893702 239.40516496158176 10.020463674098586
  endloop
endfacet
facet normal 1.3859422037687934e-06 -5.162901586031053e-07 -0.9999999999989064
  outer loop
    vertex 20.832026104796697 232.40930012338572 10.020486329745165
    vertex 10.332026104893702 239.40516496158176 10.020463674098586
    vertex 20.83202610479601 247.4051561361881 10.020486794406313
  endloop
endfacet
facet normal 1.3859422037687934e-06 -5.162901586031053e-07 -0.9999999999989064
  outer loop
    vertex -3.667973895106363 239.40516496158176 10.020463674098437
    vertex -1.667973895106457 232.40516496158168 10.020464309506492
    vertex -14.167970067292842 232.40515613618794 10.020435598635107
  endloop
endfacet
facet normal 1.3859422037687934e-06 -5.162901586031053e-07 -0.9999999999989064
  outer loop
    vertex -1.667973895106457 232.40516496158168 10.020464309506492
    vertex -3.667973895106363 239.40516496158176 10.020463674098437
    vertex -1.667973895106457 235.90516496158173 10.020463991802474
  endloop
endfacet
facet normal -1.3859422037687934e-06 5.162901586031053e-07 0.9999999999989064
  outer loop
    vertex -1.6679842896691106 232.40516883375648 17.520461513246353
    vertex -3.6679842896690182 239.4051688337565 17.520460877838296
    vertex -14.167980461855489 232.40516000836274 17.52043280237497
  endloop
endfacet
facet normal -1.3859422037687934e-06 5.162901586031053e-07 0.9999999999989064
  outer loop
    vertex -3.6679842896690182 239.4051688337565 17.520460877838296
    vertex -1.6679842896691106 232.40516883375648 17.520461513246353
    vertex -1.6679842896691106 235.90516883375653 17.520461195542335
  endloop
endfacet
facet normal -1.3859422037687934e-06 5.162901586031053e-07 0.9999999999989064
  outer loop
    vertex 20.832015710234053 232.40930399556052 17.520483533485024
    vertex 8.332015710282414 235.90723641465846 17.520472205661722
    vertex 8.332015710234046 232.40930399556052 17.520483533485024
  endloop
endfacet
facet normal -1.3859422037687934e-06 5.162901586031053e-07 0.9999999999989064
  outer loop
    vertex 8.332015710282414 235.90723641465846 17.520472205661722
    vertex 20.832015710234053 232.40930399556052 17.520483533485024
    vertex 10.33201571033105 239.4051688337565 17.520460877838445
  endloop
endfacet
facet normal -1.3859422037687934e-06 5.162901586031053e-07 0.9999999999989064
  outer loop
    vertex 10.33201571033105 239.4051688337565 17.520460877838445
    vertex 20.832015710234053 232.40930399556052 17.520483533485024
    vertex 20.832015710233357 247.40516000836277 17.52048399814616
  endloop
endfacet
facet normal -1.3859422037687934e-06 5.162901586031053e-07 0.9999999999989064
  outer loop
    vertex -14.167980461856176 247.40516000836277 17.520431823752137
    vertex -3.6679842896690182 239.4051688337565 17.520460877838296
    vertex 20.832015710233357 247.40516000836277 17.52048399814616
  endloop
endfacet
facet normal -1.3859422037687934e-06 5.162901586031053e-07 0.9999999999989064
  outer loop
    vertex -3.6679842896690182 239.4051688337565 17.520460877838296
    vertex -14.167980461856176 247.40516000836277 17.520431823752137
    vertex -14.167980461855489 232.40516000836274 17.52043280237497
  endloop
endfacet
facet normal -1.3859422037687934e-06 5.162901586031053e-07 0.9999999999989064
  outer loop
    vertex 20.832015710233357 247.40516000836277 17.52048399814616
    vertex -3.6679842896690182 239.4051688337565 17.520460877838296
    vertex 10.33201571033105 239.4051688337565 17.520460877838445
  endloop
endfacet
facet normal -0.9999999999990395 -1.2580554481115375e-13 -1.385942203768913e-06
  outer loop
    vertex -14.167980461855489 232.40516000836274 17.52043280237497
    vertex -14.16797006729353 247.4051561361881 10.020434620012287
    vertex -14.167970067292842 232.40515613618794 10.020435598635107
  endloop
endfacet
facet normal -0.9999999999990395 -1.2580554481115375e-13 -1.385942203768913e-06
  outer loop
    vertex -14.16797006729353 247.4051561361881 10.020434620012287
    vertex -14.167980461855489 232.40516000836274 17.52043280237497
    vertex -14.167980461856176 247.40516000836277 17.520431823752137
  endloop
endfacet
facet normal 7.060305282917564e-07 -0.9999999999996176 5.162911371209788e-07
  outer loop
    vertex -1.667973895106457 232.40516496158168 10.020464309506492
    vertex -14.167980461855489 232.40516000836274 17.52043280237497
    vertex -14.167970067292842 232.40515613618794 10.020435598635107
  endloop
endfacet
facet normal 7.060305282917564e-07 -0.9999999999996176 5.162911371209788e-07
  outer loop
    vertex -14.167980461855489 232.40516000836274 17.52043280237497
    vertex -1.667973895106457 232.40516496158168 10.020464309506492
    vertex -1.6679842896691106 232.40516883375648 17.520461513246353
  endloop
endfacet
facet normal 0.9999999999990395 1.2580554497970258e-13 1.3859422037689128e-06
  outer loop
    vertex -1.667973895106457 235.90516496158173 10.020463991802474
    vertex -1.6679842896691106 232.40516883375648 17.520461513246353
    vertex -1.667973895106457 232.40516496158168 10.020464309506492
  endloop
endfacet
facet normal 0.9999999999990395 1.2580554497970258e-13 1.3859422037689128e-06
  outer loop
    vertex -1.6679842896691106 232.40516883375648 17.520461513246353
    vertex -1.667973895106457 235.90516496158173 10.020463991802474
    vertex -1.6679842896691106 235.90516883375653 17.520461195542335
  endloop
endfacet
facet normal 0.8682431421240439 0.4961389383566568 9.4718316263024e-07
  outer loop
    vertex -3.667973895106363 239.40516496158176 10.020463674098437
    vertex -1.6679842896691106 235.90516883375653 17.520461195542335
    vertex -1.667973895106457 235.90516496158173 10.020463991802474
  endloop
endfacet
facet normal 0.8682431421240439 0.4961389383566568 9.4718316263024e-07
  outer loop
    vertex -1.6679842896691106 235.90516883375653 17.520461195542335
    vertex -3.667973895106363 239.40516496158176 10.020463674098437
    vertex -3.6679842896690182 239.4051688337565 17.520460877838296
  endloop
endfacet
facet normal -5.459703534493074e-21 -0.9999999999998668 5.162901586036011e-07
  outer loop
    vertex 10.332026104893702 239.40516496158176 10.020463674098586
    vertex -3.6679842896690182 239.4051688337565 17.520460877838296
    vertex -3.667973895106363 239.40516496158176 10.020463674098437
  endloop
endfacet
facet normal -5.459703534493074e-21 -0.9999999999998668 5.162901586036011e-07
  outer loop
    vertex -3.6679842896690182 239.4051688337565 17.520460877838296
    vertex 10.332026104893702 239.40516496158176 10.020463674098586
    vertex 10.33201571033105 239.4051688337565 17.520460877838445
  endloop
endfacet
facet normal -0.8681168045210887 0.49635996384273773 -1.4594254816448751e-06
  outer loop
    vertex 8.332015710282414 235.90723641465846 17.520472205661722
    vertex 10.332026104893702 239.40516496158176 10.020463674098586
    vertex 8.332026104845067 235.90723254248365 10.020475001921861
  endloop
endfacet
facet normal -0.8681168045210887 0.49635996384273773 -1.4594254816448751e-06
  outer loop
    vertex 10.332026104893702 239.40516496158176 10.020463674098586
    vertex 8.332015710282414 235.90723641465846 17.520472205661722
    vertex 10.33201571033105 239.4051688337565 17.520460877838445
  endloop
endfacet
facet normal -0.9999999999990397 9.339333297740764e-12 -1.3859422037737998e-06
  outer loop
    vertex 8.332015710234046 232.40930399556052 17.520483533485024
    vertex 8.332026104845067 235.90723254248365 10.020475001921861
    vertex 8.332026104796698 232.40930012338572 10.020486329745165
  endloop
endfacet
facet normal -0.9999999999990397 9.339333297740764e-12 -1.3859422037737998e-06
  outer loop
    vertex 8.332026104845067 235.90723254248365 10.020475001921861
    vertex 8.332015710234046 232.40930399556052 17.520483533485024
    vertex 8.332015710282414 235.90723641465846 17.520472205661722
  endloop
endfacet
facet normal 0.0 -0.9999999999998668 5.162901586036011e-07
  outer loop
    vertex 20.832015710234053 232.40930399556052 17.520483533485024
    vertex 8.332026104796698 232.40930012338572 10.020486329745165
    vertex 20.832026104796697 232.40930012338572 10.020486329745165
  endloop
endfacet
facet normal 0.0 -0.9999999999998668 5.162901586036011e-07
  outer loop
    vertex 8.332026104796698 232.40930012338572 10.020486329745165
    vertex 20.832015710234053 232.40930399556052 17.520483533485024
    vertex 8.332015710234046 232.40930399556052 17.520483533485024
  endloop
endfacet
facet normal 0.9999999999990395 0.0 1.3859422037689776e-06
  outer loop
    vertex 20.83202610479601 247.4051561361881 10.020486794406313
    vertex 20.832015710234053 232.40930399556052 17.520483533485024
    vertex 20.832026104796697 232.40930012338572 10.020486329745165
  endloop
endfacet
facet normal 0.9999999999990395 0.0 1.3859422037689776e-06
  outer loop
    vertex 20.832015710234053 232.40930399556052 17.520483533485024
    vertex 20.83202610479601 247.4051561361881 10.020486794406313
    vertex 20.832015710233357 247.40516000836277 17.52048399814616
  endloop
endfacet
facet normal 7.696322603488753e-13 0.9999999999998668 -5.162901586025344e-07
  outer loop
    vertex -14.167980461856176 247.40516000836277 17.520431823752137
    vertex 20.83202610479601 247.4051561361881 10.020486794406313
    vertex -14.16797006729353 247.4051561361881 10.020434620012287
  endloop
endfacet
facet normal 7.696322603488753e-13 0.9999999999998668 -5.162901586025344e-07
  outer loop
    vertex 20.83202610479601 247.4051561361881 10.020486794406313
    vertex -14.167980461856176 247.40516000836277 17.520431823752137
    vertex 20.832015710233357 247.40516000836277 17.52048399814616
  endloop
endfacet
endsolid Chest Online Ver3
